# xmcd CD database file
#
# Track frame offsets:
#	150
#	33152
#	46602
#
# Disc length: 930 seconds
#
# Revision: 2
# Processed by: cddbd v1.5.1PL0 Copyright (c) Steve Scherf et al.
# Submitted via: CDex 1.51
#
DISCID=1503a003
DTITLE=Ｉ'ｖｅ - 真・瑠璃色の雪 〜ふりむけば隣に〜 初回特典CD
DYEAR=1900
DGENRE=
TTITLE0=氷結の夜
TTITLE1=子守唄
TTITLE2=瑠璃色の雪 〜ふりむけば隣に〜
EXTD=I've sound
EXTT0=
EXTT1=
EXTT2=
PLAYORDER=
